<svg height="64px" width="64px" version="1.1" id="Layer_1" xmlns="http://www.w3.org/2000/svg" xmlns:xlink="http://www.w3.org/1999/xlink" viewBox="-51.2 -51.2 614.40 614.40" xml:space="preserve" fill="#000000"><g id="SVGRepo_bgCarrier" stroke-width="0"></g><g id="SVGRepo_tracerCarrier" stroke-linecap="round" stroke-linejoin="round"></g><g id="SVGRepo_iconCarrier"> <g> <path style="fill:#FFB656;" d="M425.768,234.981V169.23h69.098c4.299,0,6.863,4.791,4.478,8.368l-16.339,24.508l16.339,24.508 c2.384,3.576-0.18,8.368-4.478,8.368H425.768z"></path> <path style="fill:#FFB656;" d="M425.768,343.31v-65.752h69.098c4.299,0,6.863,4.791,4.478,8.368l-16.339,24.508l16.339,24.508 c2.384,3.576-0.18,8.368-4.478,8.368H425.768z"></path> <path style="fill:#FFB656;" d="M425.768,451.099v-65.752h69.098c4.299,0,6.863,4.791,4.478,8.368l-16.339,24.508l16.339,24.508 c2.384,3.576-0.18,8.368-4.478,8.368H425.768z"></path> </g> <path style="fill:#ECE5DD;" d="M389.852,39.882H73.43c-18.008,0-33.053,14.334-33.535,31.953 c-0.016,0.586-0.013,166.872-0.013,166.872h389.12V79.032C429.002,57.445,411.44,39.882,389.852,39.882z"></path> <path style="fill:#D9CBBD;" d="M389.852,39.882h-32.876c21.587,0,39.15,17.563,39.15,39.15v159.674h32.876V79.032 C429.002,57.445,411.44,39.882,389.852,39.882z"></path> <path style="fill:#FF6342;" d="M72.758,504.455c-35.959,0-65.213-29.255-65.213-65.213V64.617 c20.539,50.541,65.491,68.526,119.646,64.731l-0.019,375.107H72.758z"></path> <path style="fill:#FE5022;" d="M73.723,137.971c-36.026,0-65.711-28.866-66.171-64.347c-0.229-17.589,6.446-34.166,18.794-46.676 C38.696,14.436,55.18,7.545,72.758,7.545h350.316c9.213,0,16.707,7.495,16.707,16.707s-7.495,16.707-16.707,16.707H73.43 C56,40.96,41.44,54.823,40.973,71.863c-0.238,8.671,2.956,16.863,8.993,23.066c6.039,6.208,14.133,9.627,22.792,9.627h64.135v33.415 H73.723z"></path> <path style="fill:#FF7856;" d="M74.375,504.455V104.556h310.973c35.959,0,65.213,29.255,65.213,65.213v269.474 c0,35.957-29.254,65.213-65.213,65.213H74.375z"></path> <path style="fill:#FF6342;" d="M385.347,104.556h-33.415c35.959,0,65.213,29.255,65.213,65.213v269.474 c0,35.957-29.254,65.213-65.213,65.213h33.415c35.959,0,65.213-29.255,65.213-65.213V169.769 C450.56,133.811,421.306,104.556,385.347,104.556z"></path> <path style="fill:#ECE5DD;" d="M188.615,461.339c-10.689,0-19.386-8.696-19.386-19.386v-70.094c0-10.689,8.696-19.386,19.386-19.386 h177.884c10.689,0,19.386,8.696,19.386,19.386v70.094c0,10.689-8.696,19.386-19.386,19.386H188.615z"></path> <g> <path style="fill:#BABABA;" d="M212.884,393.432h64.674c4.465,0,8.084-3.618,8.084-8.084s-3.62-8.084-8.084-8.084h-64.674 c-4.465,0-8.084,3.618-8.084,8.084S208.42,393.432,212.884,393.432z"></path> <path style="fill:#BABABA;" d="M342.232,377.263h-32.337c-4.465,0-8.084,3.618-8.084,8.084s3.62,8.084,8.084,8.084h32.337 c4.465,0,8.084-3.618,8.084-8.084S346.696,377.263,342.232,377.263z"></path> <path style="fill:#BABABA;" d="M342.232,420.379h-64.674c-4.465,0-8.084,3.618-8.084,8.084s3.62,8.084,8.084,8.084h64.674 c4.465,0,8.084-3.618,8.084-8.084S346.696,420.379,342.232,420.379z"></path> <path style="fill:#BABABA;" d="M245.221,420.379h-32.337c-4.465,0-8.084,3.618-8.084,8.084s3.62,8.084,8.084,8.084h32.337 c4.465,0,8.084-3.618,8.084-8.084S249.686,420.379,245.221,420.379z"></path> </g> <circle style="fill:#ECE5DD;" cx="277.558" cy="223.663" r="87.698"></circle> <path style="fill:#FFB656;" d="M345.548,266.768c-14.93-18.816-36.522-30.398-60.129-32.51c20.33-3.713,35.794-21.545,35.794-42.931 c0-24.072-19.583-43.655-43.655-43.655s-43.655,19.583-43.655,43.655c0,21.387,15.463,39.218,35.794,42.933 c-23.606,2.113-45.198,13.695-60.129,32.51l-4.252,5.359l4.251,5.36c16.607,20.936,41.389,32.945,67.991,32.945 c26.602,0,51.384-12.009,67.991-32.946l4.251-5.36L345.548,266.768z"></path> <path d="M366.5,344.926h-40.306c-4.465,0-8.084,3.62-8.084,8.084c0,4.465,3.62,8.084,8.084,8.084H366.5 c5.945,0,10.763,4.819,10.763,10.763v70.094c0,5.945-4.819,10.763-10.763,10.763H188.615c-5.945,0-10.763-4.819-10.763-10.763 v-70.094c0-5.945,4.819-10.763,10.763-10.763h101.933c4.465,0,8.084-3.62,8.084-8.084c0-4.465-3.62-8.084-8.084-8.084H188.615 c-14.874,0-26.931,12.058-26.931,26.931v70.094c0,14.874,12.057,26.932,26.931,26.932h177.884c14.875,0,26.932-12.058,26.932-26.931 v-70.094C393.432,356.985,381.374,344.926,366.5,344.926z"></path> <path d="M277.558,317.979c52.006,0,94.316-42.31,94.316-94.316s-42.31-94.316-94.316-94.316s-94.316,42.31-94.316,94.316 S225.553,317.979,277.558,317.979z M277.558,301.811c-24.793,0-46.909-11.619-61.235-29.682 c14.787-18.635,37.277-29.602,61.235-29.602c23.958,0,46.449,10.968,61.235,29.602C324.467,290.192,302.351,301.811,277.558,301.811 z M355.705,223.663c0,12.236-2.833,23.821-7.869,34.143c-10.647-11.902-24.052-20.822-38.901-26.066 c12.05-9.377,19.822-24,19.822-40.415c0-14.912-6.411-28.351-16.618-37.718C337.928,166.392,355.705,192.984,355.705,223.663z M277.558,156.295c19.316,0,35.032,15.715,35.032,35.032s-15.716,35.032-35.032,35.032s-35.032-15.715-35.032-35.032 S258.242,156.295,277.558,156.295z M199.411,223.663c0-30.679,17.778-57.272,43.565-70.055 c-10.207,9.367-16.618,22.806-16.618,37.718c0,16.413,7.773,31.036,19.819,40.412c-14.848,5.244-28.252,14.166-38.899,26.067 C202.243,247.485,199.411,235.9,199.411,223.663z"></path> <path d="M503.916,242.526c2.981,0,5.721-1.641,7.128-4.27c1.407-2.628,1.253-5.817-0.402-8.299l-18.569-27.853l18.569-27.853 c1.654-2.481,1.808-5.671,0.402-8.299c-1.407-2.628-4.147-4.27-7.128-4.27h-46.271c-1.896-17.07-9.717-32.37-21.36-43.802 c0.165-0.644,0.262-1.314,0.262-2.008V79.032c0-11.706-4.34-22.412-11.482-30.615c12.444-1.018,22.261-11.462,22.261-24.164 C447.326,10.88,436.447,0,423.074,0H72.758C53.145,0,34.755,7.688,20.976,21.648C7.425,35.375,0.016,53.494,0.017,72.758H0v366.484 C0,479.361,32.639,512,72.758,512h312.589c33.596,0,61.933-22.893,70.264-53.895h48.305c2.981,0,5.721-1.641,7.128-4.27 c1.407-2.628,1.253-5.817-0.402-8.299l-18.569-27.853l18.569-27.853c1.654-2.481,1.808-5.671,0.402-8.299 c-1.407-2.628-4.147-4.27-7.128-4.27h-45.811v-26.947h45.811c2.981,0,5.721-1.641,7.128-4.27c1.407-2.628,1.253-5.817-0.402-8.299 l-18.569-27.853l18.569-27.853c1.654-2.481,1.808-5.671,0.402-8.299c-1.407-2.628-4.147-4.27-7.128-4.27h-45.811v-26.947H503.916z M458.105,177.853h30.705l-13.179,19.769c-1.811,2.716-1.811,6.253,0,8.968l13.179,19.769h-30.705V177.853z M118.568,495.832H72.758 c-31.204,0-56.589-25.387-56.589-56.589V118.041c13.555,16.712,34.368,27.474,57.554,27.474h44.846V495.832z M118.568,129.348 H73.723c-31.333,0-57.149-25.047-57.549-55.836c-0.198-15.265,5.593-29.651,16.309-40.506C43.2,22.149,57.504,16.169,72.758,16.169 h350.316c4.458,0,8.084,3.626,8.084,8.084s-3.626,8.084-8.084,8.084h-33.222h-79.957H73.43c-22.057,0-40.485,17.627-41.077,39.29 c-0.302,11.017,3.758,21.429,11.432,29.316c7.677,7.891,17.966,12.236,28.973,12.236h45.811V129.348z M420.379,79.032v26.99 c-10.398-5.737-22.338-9.012-35.032-9.012H72.758c-6.603,0-12.777-2.607-17.384-7.343c-4.604-4.732-7.04-10.982-6.859-17.598 c0.356-12.993,11.533-23.565,24.916-23.565h236.464h79.957C406.684,48.505,420.379,62.2,420.379,79.032z M441.937,234.442v43.116 v64.674v43.116v53.895c0,31.203-25.385,56.589-56.589,56.589H134.737V113.179h250.611c31.204,0,56.589,25.387,56.589,56.589V234.442 z M488.81,393.432L475.631,413.2c-1.811,2.716-1.811,6.253,0,8.968l13.179,19.769h-30.705v-2.695v-45.811H488.81z M488.81,285.642 l-13.179,19.769c-1.811,2.716-1.811,6.253,0,8.968l13.179,19.769h-30.705v-48.505H488.81z"></path> </g></svg>