<svg width="64px" height="64px" viewBox="-102.4 -102.4 1228.80 1228.80" class="icon" version="1.1" xmlns="http://www.w3.org/2000/svg" fill="#000000"><g id="SVGRepo_bgCarrier" stroke-width="0"></g><g id="SVGRepo_tracerCarrier" stroke-linecap="round" stroke-linejoin="round"></g><g id="SVGRepo_iconCarrier"><path d="M192 85.333333h640v853.333334H192z" fill="#FBE9E7"></path><path d="M640 789.333333h59.733333l-106.666666-106.666666-59.733334 59.733333 106.666667 106.666667zM384 789.333333h-59.733333l106.666666-106.666666 59.733334 59.733333-106.666667 106.666667z" fill="#F4511E"></path><path d="M320 277.333333h384v85.333334H320zM320 426.666667h384v42.666666H320zM512 554.666667c-59.733333 0-106.666667 46.933333-106.666667 106.666666s46.933333 106.666667 106.666667 106.666667 106.666667-46.933333 106.666667-106.666667-46.933333-106.666667-106.666667-106.666666z m0 170.666666c-36.266667 0-64-27.733333-64-64s27.733333-64 64-64 64 27.733333 64 64-27.733333 64-64 64z" fill="#FF8A65"></path><path d="M170.666667 64v896h682.666666V64H170.666667z m640 789.333333c-36.266667 0-64 27.733333-64 64H277.333333c0-36.266667-27.733333-64-64-64V170.666667c36.266667 0 64-27.733333 64-64h469.333334c0 36.266667 27.733333 64 64 64v682.666666z" fill="#FF8A65"></path></g></svg>