<svg height="64px" width="64px" version="1.1" id="Layer_1" xmlns="http://www.w3.org/2000/svg" xmlns:xlink="http://www.w3.org/1999/xlink" viewBox="-51.2 -51.2 614.40 614.40" xml:space="preserve" fill="#000000"><g id="SVGRepo_bgCarrier" stroke-width="0"></g><g id="SVGRepo_tracerCarrier" stroke-linecap="round" stroke-linejoin="round"></g><g id="SVGRepo_iconCarrier"> <polygon style="fill:#E6E6E6;" points="440.005,253.683 440.005,509.32 399.888,509.32 361.823,509.32 316.649,509.32 278.584,509.32 233.41,509.32 71.989,509.32 71.989,253.683 "></polygon> <g> <path style="fill:#B3B3B3;" d="M399.888,341.354V509.32h-38.065V341.354c0-10.507,8.518-19.025,19.04-19.025 C391.37,322.329,399.888,330.847,399.888,341.354z"></path> <path style="fill:#B3B3B3;" d="M316.649,341.354V509.32h-38.065V341.354c0-10.507,8.518-19.025,19.04-19.025 C308.131,322.329,316.649,330.847,316.649,341.354z"></path> <path style="fill:#B3B3B3;" d="M233.41,341.354V509.32h-38.065V341.354c0-10.507,8.518-19.025,19.025-19.025 C224.892,322.329,233.41,330.847,233.41,341.354z"></path> <path style="fill:#B3B3B3;" d="M150.171,341.354V509.32h-38.065V341.354c0-10.507,8.518-19.025,19.025-19.025 C141.637,322.329,150.171,330.847,150.171,341.354z"></path> <path style="fill:#B3B3B3;" d="M440.005,216.688v52.966H71.989v-52.966c22,14.205,48.729,8.321,66.798-17.7 c7.093-10.214,11.509-22.864,13.2-36.122h208.02c1.691,13.258,6.091,25.908,13.2,36.122 C391.276,225.008,418.005,230.894,440.005,216.688z"></path> </g> <path style="fill:#CCCCCC;" d="M457.808,220.582c-5.292,5.293-11.352,9.395-17.803,12.292c-22,9.865-48.728,5.778-66.798-12.292 c-7.109-7.093-11.509-15.877-13.2-25.085h-208.02c-1.691,9.207-6.107,17.991-13.2,25.085c-18.07,18.07-44.798,22.156-66.798,12.292 c-6.451-2.897-12.511-6.999-17.803-12.292c-27.433-27.433-29.093-70.885-4.979-100.244c1.55-1.895,3.21-3.727,4.979-5.496 c18.79-18.79,43.577-27.903,68.192-27.355h267.255c24.615-0.548,49.402,8.565,68.176,27.355c1.769,1.769,3.429,3.601,4.979,5.496 C486.901,149.697,485.242,193.149,457.808,220.582z"></path> <path style="fill:#B3B3B3;" d="M462.788,120.338H49.206c1.55-1.895,3.21-3.727,4.979-5.496c18.79-18.79,43.577-27.903,68.192-27.355 h267.255c24.615-0.548,49.402,8.565,68.176,27.355C459.578,116.611,461.237,118.443,462.788,120.338z"></path> <path style="fill:#CCCCCC;" d="M500.302,89.81H11.698C5.238,89.81,0,84.573,0,78.112V14.378C0,7.918,5.238,2.68,11.698,2.68h488.605 C506.764,2.68,512,7.918,512,14.378v63.734C512,84.573,506.762,89.81,500.302,89.81z"></path> </g></svg>