<svg version="1.1" id="Layer_1" xmlns="http://www.w3.org/2000/svg" xmlns:xlink="http://www.w3.org/1999/xlink" viewBox="-51.2 -51.2 614.40 614.40" xml:space="preserve" width="64px" height="64px" fill="#000000"><g id="SVGRepo_bgCarrier" stroke-width="0"></g><g id="SVGRepo_tracerCarrier" stroke-linecap="round" stroke-linejoin="round"></g><g id="SVGRepo_iconCarrier"> <path style="fill:#E6E6E6;" d="M455.173,358.563l-0.001,0.044v-45.438l-0.01,0.01c0.004-12.687-4.333-25.491-13.34-35.947 l-29.562-34.312c-41.422-48.079-70.303-105.659-84.07-167.609l-4.707-21.181C316.456,22.502,288.404,0,256.004,0l0,0l0,0 c-32.4,0-60.452,22.502-67.481,54.131l-4.707,21.181c-13.767,61.95-42.648,119.53-84.07,167.609l-29.56,34.312 c-9.007,10.454-13.343,23.257-13.34,35.944l-0.021-0.021v45.407H5.221v56.714h52.672l-0.001-0.062 c2.689,13.628,10.504,26.279,23.091,34.693c28.245,18.875,75.598,37.381,147.972,41.112h0.034 c3.089,12.056,13.993,20.981,27.013,20.981s23.925-8.925,27.013-20.981h0.043c72.374-3.731,119.741-22.236,147.986-41.112 c12.582-8.417,20.387-21.068,23.069-34.697l-0.001,0.067h52.672v-56.714h-51.608V358.563z"></path> <path style="fill:#F2F2F2;" d="M441.822,277.234l-29.562-34.312c-41.422-48.079-70.303-105.659-84.07-167.609l-4.707-21.181 C316.456,22.502,288.404,0,256.004,0l0,0l0,0c-32.4,0-60.452,22.502-67.481,54.131l-4.707,21.181 c-13.767,61.95-42.648,119.53-84.07,167.609l-29.56,34.312c-21.439,24.885-16.519,63.078,10.79,81.328 c31.619,21.131,87.209,41.799,175.029,41.799s143.41-20.668,175.029-41.799C458.342,340.31,463.261,302.117,441.822,277.234z"></path> <g> <path style="fill:#B3B3B3;" d="M256.004,361.434c-87.594,0-133.707-22.077-153.399-35.237c-5.004-3.344-6.346-8.209-6.7-10.81 c-0.368-2.7-0.365-7.943,3.772-12.745l29.562-34.312c45.456-52.764,77.469-116.588,92.578-184.572l4.707-21.183 c3.095-13.923,15.217-23.648,29.481-23.648c14.264,0,26.386,9.724,29.481,23.649l4.708,21.183 c15.107,67.985,47.12,131.809,92.578,184.571l29.56,34.312c4.137,4.803,4.139,10.047,3.772,12.745 c-0.354,2.602-1.695,7.465-6.7,10.81C389.711,339.357,343.598,361.434,256.004,361.434z"></path> <path style="fill:#B3B3B3;" d="M283.921,484.082c0-15.419-55.831-15.419-55.831,0v-30.988c0-15.419,12.497-27.915,27.915-27.915 s27.915,12.497,27.915,27.915V484.082L283.921,484.082z"></path> </g> <circle style="fill:#F2F2F2;" cx="256" cy="484.082" r="27.915"></circle> <circle style="fill:#B3B3B3;" cx="256" cy="484.082" r="12.87"></circle> <g> <circle style="fill:#666666;" cx="256" cy="82.539" r="10.288"></circle> <circle style="fill:#666666;" cx="256" cy="112.485" r="10.288"></circle> <circle style="fill:#666666;" cx="256" cy="142.225" r="10.288"></circle> <circle style="fill:#666666;" cx="256" cy="260.375" r="10.288"></circle> <circle style="fill:#666666;" cx="256" cy="314.834" r="10.288"></circle> <circle style="fill:#666666;" cx="223.434" cy="314.834" r="10.288"></circle> <circle style="fill:#666666;" cx="288.566" cy="314.834" r="10.288"></circle> <circle style="fill:#666666;" cx="272.283" cy="287.453" r="10.288"></circle> <circle style="fill:#666666;" cx="239.717" cy="287.453" r="10.288"></circle> </g> <g> <rect x="455.166" y="399.019" style="fill:#CCCCCC;" width="51.609" height="16.262"></rect> <rect x="5.221" y="399.019" style="fill:#CCCCCC;" width="51.609" height="16.262"></rect> </g> </g></svg>